<svg width="259" height="49" viewBox="0 0 259 49" fill="none" xmlns="http://www.w3.org/2000/svg">
<path d="M14.16 12.75C21.21 12.75 24.97 18.62 24.97 18.62L24.27 19.09C24.27 19.09 20.75 13.69 14.17 13.69C8.30002 13.69 4.54002 17.45 4.54002 21.21C4.54002 30.14 25.69 27.79 25.69 38.13C25.69 43.06 21.23 47.53 13.94 47.53C4.78002 47.53 1.02002 40.25 1.02002 40.25L1.73003 39.78C1.73003 39.78 5.25002 46.59 13.95 46.59C20.29 46.59 24.29 42.6 24.29 38.13C24.29 29.2 3.14002 31.55 3.14002 21.21C3.12002 16.98 7.35003 12.75 14.16 12.75Z" fill="white" stroke="white" stroke-miterlimit="10"/>
<path d="M45.6502 45.6499H66.3302V46.5899H44.2402V13.6899H65.3902L65.1602 14.6299H45.6602V29.1999H60.2302L59.9902 30.1399H45.6602V45.6499H45.6502Z" fill="white" stroke="white" stroke-miterlimit="10"/>
<path d="M85.3602 33.4299V46.5899H83.9502V13.6899H95.2302C102.28 13.6899 106.51 17.9199 106.51 23.5599C106.51 31.5499 98.9902 32.9599 98.9902 32.9599V33.1899L108.39 46.5799H106.74L97.5802 33.4199H85.3602V33.4299ZM105.1 23.5599C105.1 18.3899 101.34 14.6299 95.2302 14.6299H85.3602V32.4899H95.2302C101.34 32.4899 105.1 28.7299 105.1 23.5599Z" fill="white" stroke="white" stroke-miterlimit="10"/>
<path d="M149.52 13.6899H150.69L137.06 46.5899H136.12L126.19 22.8299H127.83L136.73 44.2399H136.92L149.52 13.6899Z" fill="white" stroke="white" stroke-miterlimit="10"/>
<path d="M169.73 46.5899H168.32V13.6899H169.73V46.5899Z" fill="white" stroke="white" stroke-miterlimit="10"/>
<path d="M218.61 40.25C218.61 40.25 214.85 47.53 205.22 47.53C196.06 47.53 189.01 40.48 189.01 30.14C189.01 19.8 196.06 12.75 205.22 12.75C213.91 12.75 217.91 19.56 217.91 19.56L217.2 20.03C217.2 20.03 213.44 13.69 205.22 13.69C197 13.69 190.42 20.27 190.42 30.14C190.42 40.01 197 46.59 205.22 46.59C214.39 46.59 217.91 39.78 217.91 39.78L218.61 40.25Z" fill="white" stroke="white" stroke-miterlimit="10"/>
<path d="M237.64 45.6499H258.32V46.5899H236.23V13.6899H257.38L257.14 14.6299H237.64V29.1999H252.21L251.97 30.1399H237.64V45.6499Z" fill="white" stroke="white" stroke-miterlimit="10"/>
<path d="M122.75 6.84995C121.81 8.32995 121 9.59994 120.32 10.6399C119.64 11.6899 119.09 12.5899 118.65 13.3299C118.22 14.0699 117.9 14.6799 117.69 15.1399C117.48 15.6099 117.38 15.9899 117.38 16.2999C117.38 16.5399 117.42 16.7399 117.52 16.8799C117.61 17.0299 117.74 17.1099 117.92 17.1099C118.32 17.1099 118.88 16.8799 119.61 16.4199C120.34 15.9599 121.26 15.1699 122.36 14.0499C122.8 13.5899 123.23 13.1299 123.65 12.6799C124.07 12.2299 124.46 11.7999 124.84 11.3799C125.21 10.9599 125.54 10.5799 125.83 10.2399C126.12 9.89994 126.35 9.62993 126.53 9.42993L126.8 9.60994C126.56 9.92994 126.26 10.2999 125.92 10.6999C125.57 11.1099 125.19 11.5399 124.8 11.9899C124.4 12.4399 123.99 12.8899 123.57 13.3199C123.15 13.7599 122.74 14.1799 122.34 14.5799C121.18 15.7399 120.18 16.5499 119.35 17.0099C118.52 17.4699 117.76 17.6999 117.06 17.6999C116.4 17.6999 115.89 17.5199 115.53 17.1599C115.17 16.7999 114.99 16.3299 114.99 15.7499C114.99 15.3499 115.07 14.9399 115.22 14.4999C115.37 14.0699 115.62 13.5399 115.98 12.8999C116.34 12.2599 116.82 11.4599 117.42 10.5199C118.02 9.56994 118.77 8.39994 119.67 6.98994L122.75 6.84995ZM124.49 0.189941C124.87 0.189941 125.2 0.32994 125.5 0.60994C125.79 0.88994 125.94 1.21995 125.94 1.59995C125.94 1.99995 125.78 2.36994 125.46 2.69994C125.14 3.02994 124.78 3.18994 124.38 3.18994C123.94 3.18994 123.56 3.07995 123.24 2.84995C122.92 2.61995 122.76 2.27994 122.76 1.80994C122.76 1.34994 122.93 0.969943 123.28 0.659943C123.63 0.339943 124.03 0.189941 124.49 0.189941Z" fill="#AB8B11"/>
<path d="M138.98 9.66988C138.24 10.5699 137.44 11.5099 136.58 12.4799C135.72 13.4499 134.79 14.3399 133.81 15.1399C132.82 15.9399 131.76 16.5999 130.63 17.1199C129.5 17.6399 128.3 17.8999 127.05 17.8999C125.85 17.8999 124.93 17.5699 124.29 16.9199C123.65 16.2699 123.33 15.3199 123.33 14.0599C123.33 13.0999 123.61 12.1599 124.17 11.2399C124.73 10.3199 125.45 9.49988 126.33 8.77988C127.21 8.05988 128.18 7.47987 129.24 7.03987C130.3 6.59987 131.33 6.37988 132.33 6.37988C133.25 6.37988 133.98 6.56988 134.52 6.93988C135.06 7.30988 135.33 7.75988 135.33 8.29988C135.33 8.67988 135.26 9.02987 135.11 9.33987C134.96 9.64987 134.76 9.90987 134.52 10.1199C134.28 10.3299 134.01 10.4899 133.71 10.5999C133.41 10.7099 133.11 10.7699 132.81 10.7699C132.55 10.7699 132.32 10.7499 132.12 10.7099C132.26 10.2499 132.41 9.77988 132.57 9.29988C132.73 8.81988 132.81 8.33988 132.81 7.85988C132.81 7.51988 132.73 7.24988 132.57 7.04988C132.41 6.84988 132.19 6.74988 131.91 6.74988C131.39 6.74988 130.8 6.95987 130.14 7.36987C129.48 7.77987 128.86 8.32988 128.28 9.01988C127.7 9.70988 127.21 10.4999 126.81 11.3899C126.41 12.2799 126.21 13.1999 126.21 14.1599C126.21 14.9199 126.44 15.5699 126.9 16.0999C127.36 16.6299 128 16.8899 128.82 16.8899C129.8 16.8899 130.77 16.6199 131.74 16.0799C132.71 15.5399 133.63 14.8899 134.5 14.1199C135.37 13.3499 136.17 12.5499 136.88 11.7199C137.6 10.8899 138.21 10.1799 138.71 9.56989L138.98 9.66988Z" fill="#AB8B11"/>
<path d="M136.91 7.38995L137.12 6.84996H139.43L141.68 3.06996L144.92 2.94995L142.43 6.84996H146.24L145.97 7.38995H142.1C141.2 8.86995 140.44 10.1199 139.82 11.1199C139.2 12.1299 138.7 12.97 138.33 13.64C137.96 14.31 137.69 14.85 137.52 15.24C137.35 15.64 137.27 15.9899 137.27 16.2899C137.27 16.5499 137.34 16.76 137.48 16.92C137.62 17.08 137.82 17.16 138.08 17.16C138.58 17.16 139.24 16.9099 140.06 16.3999C140.88 15.8899 141.76 15.18 142.7 14.28C143.34 13.64 144.04 12.89 144.8 12.03C145.56 11.17 146.27 10.3 146.93 9.41995L147.11 9.56996C146.65 10.17 146.07 10.8999 145.37 11.7599C144.67 12.6199 143.9 13.47 143.06 14.31C142.6 14.77 142.12 15.21 141.63 15.61C141.14 16.02 140.64 16.38 140.15 16.69C139.65 17 139.16 17.25 138.68 17.42C138.2 17.6 137.73 17.69 137.27 17.69C136.63 17.69 136.07 17.5399 135.59 17.2599C135.11 16.9699 134.87 16.46 134.87 15.74C134.87 15.22 134.98 14.69 135.2 14.14C135.42 13.59 135.73 12.98 136.12 12.33C136.51 11.67 136.96 10.94 137.49 10.14C138.01 9.33995 138.57 8.41996 139.17 7.37996H136.91V7.38995Z" fill="#AB8B11"/>
<path d="M41.3774 43.543L39.3584 43.0352V42.5835L42 43.3525V43.7188L39.998 44.3608L42 44.9858V45.3521L39.3584 46.1187V45.6694L41.3359 45.1494L39.3584 44.5342V44.1704L41.3774 43.543ZM42.0488 41.0259C42.0488 41.384 41.9316 41.6753 41.6973 41.8999C41.4613 42.1245 41.1463 42.2368 40.7524 42.2368H40.6694C40.4074 42.2368 40.1738 42.1872 39.9688 42.0879C39.762 41.987 39.6009 41.847 39.4854 41.668C39.3682 41.4873 39.3096 41.292 39.3096 41.082C39.3096 40.7386 39.4227 40.4717 39.6489 40.2812C39.8752 40.0908 40.1991 39.9956 40.6206 39.9956H40.8086V41.7852C41.069 41.7786 41.2798 41.703 41.4409 41.5581C41.6004 41.4116 41.6802 41.2261 41.6802 41.0015C41.6802 40.842 41.6476 40.7069 41.5825 40.5962C41.5174 40.4855 41.4312 40.3887 41.3237 40.3057L41.5386 40.0298C41.8787 40.2511 42.0488 40.5832 42.0488 41.0259ZM39.6807 41.082C39.6807 41.2643 39.7474 41.4173 39.8809 41.541C40.0127 41.6647 40.1982 41.7412 40.4375 41.7705V40.4473H40.4033C40.1738 40.4603 39.9964 40.5221 39.8711 40.6328C39.7441 40.7435 39.6807 40.8932 39.6807 41.082ZM40.7085 37.2344C41.1121 37.2344 41.4368 37.3271 41.6826 37.5127C41.9268 37.6982 42.0488 37.9473 42.0488 38.2598C42.0488 38.5934 41.9308 38.8514 41.6948 39.0337L42 39.0557V39.4707H38.25V39.019H39.6489C39.4227 38.8368 39.3096 38.5853 39.3096 38.2646C39.3096 37.944 39.4308 37.6925 39.6733 37.5103C39.9159 37.3263 40.2479 37.2344 40.6694 37.2344H40.7085ZM40.6572 37.686C40.3496 37.686 40.112 37.7454 39.9443 37.8643C39.7767 37.9831 39.6929 38.154 39.6929 38.377C39.6929 38.6748 39.8312 38.8888 40.1079 39.019H41.2505C41.5272 38.8807 41.6655 38.665 41.6655 38.3721C41.6655 38.1556 41.5817 37.9871 41.4141 37.8667C41.2464 37.7463 40.9941 37.686 40.6572 37.686ZM41.6802 34.3633C41.6802 34.2021 41.6313 34.0614 41.5337 33.9409C41.436 33.8205 41.314 33.7537 41.1675 33.7407V33.3135C41.3188 33.3216 41.4629 33.3737 41.5996 33.4697C41.7363 33.5658 41.8454 33.6943 41.9268 33.8555C42.0081 34.015 42.0488 34.1842 42.0488 34.3633C42.0488 34.723 41.9292 35.0094 41.6899 35.2227C41.4491 35.4342 41.1203 35.54 40.7036 35.54H40.6279C40.3708 35.54 40.1421 35.4928 39.9419 35.3984C39.7417 35.304 39.5863 35.1689 39.4756 34.9932C39.3649 34.8158 39.3096 34.6066 39.3096 34.3657C39.3096 34.0695 39.3983 33.8237 39.5757 33.6284C39.7531 33.4315 39.9834 33.3265 40.2666 33.3135V33.7407C40.0957 33.7537 39.9557 33.8188 39.8467 33.936C39.736 34.0516 39.6807 34.1948 39.6807 34.3657C39.6807 34.5952 39.7637 34.7734 39.9297 34.9004C40.0941 35.0257 40.3325 35.0884 40.645 35.0884H40.7305C41.0348 35.0884 41.2692 35.0257 41.4336 34.9004C41.598 34.7751 41.6802 34.596 41.6802 34.3633ZM39.7637 31.5288C39.7523 31.5972 39.7466 31.6712 39.7466 31.751C39.7466 32.0472 39.8727 32.2482 40.125 32.354H42V32.8057H39.3584V32.3662L39.6636 32.3589C39.4276 32.2108 39.3096 32.0008 39.3096 31.729C39.3096 31.6411 39.321 31.5744 39.3438 31.5288H39.7637ZM42.0488 30.064C42.0488 30.422 41.9316 30.7134 41.6973 30.938C41.4613 31.1626 41.1463 31.2749 40.7524 31.2749H40.6694C40.4074 31.2749 40.1738 31.2253 39.9688 31.126C39.762 31.0251 39.6009 30.8851 39.4854 30.7061C39.3682 30.5254 39.3096 30.3301 39.3096 30.1201C39.3096 29.7767 39.4227 29.5098 39.6489 29.3193C39.8752 29.1289 40.1991 29.0337 40.6206 29.0337H40.8086V30.8232C41.069 30.8167 41.2798 30.741 41.4409 30.5962C41.6004 30.4497 41.6802 30.2642 41.6802 30.0396C41.6802 29.88 41.6476 29.745 41.5825 29.6343C41.5174 29.5236 41.4312 29.4268 41.3237 29.3438L41.5386 29.0679C41.8787 29.2892 42.0488 29.6213 42.0488 30.064ZM39.6807 30.1201C39.6807 30.3024 39.7474 30.4554 39.8809 30.5791C40.0127 30.7028 40.1982 30.7793 40.4375 30.8086V29.4854H40.4033C40.1738 29.4984 39.9964 29.5602 39.8711 29.6709C39.7441 29.7816 39.6807 29.9313 39.6807 30.1201ZM42 26.8779C41.9479 26.904 41.8551 26.9251 41.7217 26.9414C41.9398 27.1514 42.0488 27.402 42.0488 27.6934C42.0488 27.9538 41.9756 28.1678 41.8291 28.3354C41.681 28.5015 41.4938 28.5845 41.2676 28.5845C40.9925 28.5845 40.7793 28.4803 40.6279 28.272C40.4749 28.062 40.3984 27.7674 40.3984 27.3882V26.9487H40.1909C40.033 26.9487 39.9077 26.9959 39.8149 27.0903C39.7205 27.1847 39.6733 27.3239 39.6733 27.5078C39.6733 27.6689 39.714 27.804 39.7954 27.9131C39.8768 28.0221 39.9753 28.0767 40.0908 28.0767V28.5308C39.959 28.5308 39.832 28.4844 39.71 28.3916C39.5863 28.2972 39.4886 28.1702 39.417 28.0107C39.3454 27.8496 39.3096 27.673 39.3096 27.481C39.3096 27.1766 39.3861 26.9382 39.5391 26.7656C39.6904 26.5931 39.8996 26.5036 40.1665 26.4971H41.3823C41.6248 26.4971 41.8177 26.4661 41.9609 26.4043H42V26.8779ZM41.6558 27.6274C41.6558 27.4858 41.6191 27.3516 41.5459 27.2246C41.4727 27.0977 41.3774 27.0057 41.2603 26.9487H40.7183V27.3027C40.7183 27.8561 40.8802 28.1328 41.2041 28.1328C41.3457 28.1328 41.4564 28.0856 41.5361 27.9912C41.6159 27.8968 41.6558 27.7756 41.6558 27.6274ZM38.7188 25.1763H39.3584V24.6831H39.7075V25.1763H41.3457C41.4515 25.1763 41.5312 25.1543 41.585 25.1104C41.637 25.0664 41.6631 24.9915 41.6631 24.8857C41.6631 24.8337 41.6533 24.762 41.6338 24.6709H42C42.0326 24.7897 42.0488 24.9053 42.0488 25.0176C42.0488 25.2194 41.9878 25.3716 41.8657 25.4741C41.7437 25.5767 41.5703 25.6279 41.3457 25.6279H39.7075V26.1089H39.3584V25.6279H38.7188V25.1763ZM42 23.6626V24.1143H39.3584V23.6626H42ZM38.6577 24.1509C38.5845 24.1509 38.5226 24.1289 38.4722 24.085C38.4217 24.0394 38.3965 23.9727 38.3965 23.8848C38.3965 23.7969 38.4217 23.7301 38.4722 23.6846C38.5226 23.639 38.5845 23.6162 38.6577 23.6162C38.731 23.6162 38.792 23.639 38.8408 23.6846C38.8896 23.7301 38.9141 23.7969 38.9141 23.8848C38.9141 23.9727 38.8896 24.0394 38.8408 24.085C38.792 24.1289 38.731 24.1509 38.6577 24.1509ZM41.3872 22.0659L39.3584 21.4116V20.9502L42 21.8975V22.2417L39.3584 23.1987V22.7373L41.3872 22.0659ZM42.0488 19.4536C42.0488 19.8117 41.9316 20.103 41.6973 20.3276C41.4613 20.5522 41.1463 20.6646 40.7524 20.6646H40.6694C40.4074 20.6646 40.1738 20.6149 39.9688 20.5156C39.762 20.4147 39.6009 20.2747 39.4854 20.0957C39.3682 19.915 39.3096 19.7197 39.3096 19.5098C39.3096 19.1663 39.4227 18.8994 39.6489 18.709C39.8752 18.5186 40.1991 18.4233 40.6206 18.4233H40.8086V20.2129C41.069 20.2064 41.2798 20.1307 41.4409 19.9858C41.6004 19.8394 41.6802 19.6538 41.6802 19.4292C41.6802 19.2697 41.6476 19.1346 41.5825 19.0239C41.5174 18.9132 41.4312 18.8164 41.3237 18.7334L41.5386 18.4575C41.8787 18.6789 42.0488 19.0109 42.0488 19.4536ZM39.6807 19.5098C39.6807 19.6921 39.7474 19.8451 39.8809 19.9688C40.0127 20.0924 40.1982 20.1689 40.4375 20.1982V18.875H40.4033C40.1738 18.888 39.9964 18.9499 39.8711 19.0605C39.7441 19.1712 39.6807 19.321 39.6807 19.5098Z" fill="white" fill-opacity="0.5"/>
<path d="M81.2713 44.4448C81.1443 44.4448 81.0462 44.4931 80.9768 44.5896C80.9057 44.6843 80.8447 44.8511 80.7939 45.0897C80.7432 45.3267 80.6822 45.5155 80.6111 45.656C80.54 45.7948 80.4554 45.898 80.3572 45.9657C80.259 46.0317 80.1423 46.0647 80.0068 46.0647C79.7817 46.0647 79.5913 45.97 79.4355 45.7804C79.2798 45.5891 79.202 45.3453 79.202 45.0491C79.202 44.7377 79.2824 44.4854 79.4432 44.2925C79.604 44.0978 79.8096 44.0005 80.0602 44.0005V44.4728C79.9315 44.4728 79.8206 44.5278 79.7275 44.6378C79.6344 44.7461 79.5879 44.8832 79.5879 45.0491C79.5879 45.2201 79.6251 45.3538 79.6996 45.4503C79.7741 45.5468 79.8714 45.595 79.9916 45.595C80.105 45.595 80.1905 45.5502 80.248 45.4604C80.3056 45.3707 80.3606 45.2091 80.4131 44.9755C80.4656 44.7402 80.5282 44.5498 80.601 44.4042C80.6738 44.2586 80.7618 44.1511 80.865 44.0817C80.9666 44.0106 81.091 43.9751 81.2383 43.9751C81.4837 43.9751 81.6809 44.0733 81.8299 44.2696C81.9771 44.466 82.0508 44.7207 82.0508 45.0339C82.0508 45.2539 82.0118 45.4486 81.934 45.6179C81.8561 45.7871 81.7478 45.92 81.609 46.0165C81.4685 46.1113 81.317 46.1587 81.1545 46.1587V45.689C81.3119 45.6805 81.4372 45.6179 81.5303 45.5011C81.6217 45.3826 81.6674 45.2269 81.6674 45.0339C81.6674 44.8562 81.6318 44.714 81.5607 44.6073C81.488 44.499 81.3915 44.4448 81.2713 44.4448ZM82.0508 42.2231C82.0508 42.5955 81.9289 42.8985 81.6852 43.1321C81.4397 43.3657 81.1122 43.4825 80.7025 43.4825H80.6162C80.3437 43.4825 80.1008 43.4309 79.8875 43.3276C79.6725 43.2227 79.5049 43.0771 79.3848 42.8909C79.2629 42.703 79.202 42.4999 79.202 42.2815C79.202 41.9244 79.3196 41.6468 79.5549 41.4487C79.7902 41.2507 80.127 41.1517 80.5654 41.1517H80.7609V43.0128C81.0318 43.006 81.251 42.9273 81.4186 42.7767C81.5844 42.6243 81.6674 42.4313 81.6674 42.1978C81.6674 42.0319 81.6335 41.8914 81.5658 41.7763C81.4981 41.6612 81.4084 41.5604 81.2967 41.4741L81.5201 41.1872C81.8739 41.4174 82.0508 41.7627 82.0508 42.2231ZM79.5879 42.2815C79.5879 42.4711 79.6573 42.6302 79.7961 42.7589C79.9332 42.8875 80.1262 42.9671 80.375 42.9976V41.6214H80.3395C80.1008 41.6349 79.9163 41.6993 79.7859 41.8144C79.6539 41.9295 79.5879 42.0852 79.5879 42.2815ZM80.601 40.7302C80.3318 40.7302 80.0898 40.6777 79.8748 40.5728C79.6598 40.4661 79.4939 40.3188 79.3771 40.131C79.2604 39.9414 79.202 39.7256 79.202 39.4835C79.202 39.1094 79.3314 38.8073 79.5904 38.5771C79.8494 38.3452 80.1939 38.2292 80.6238 38.2292H80.6568C80.9243 38.2292 81.1646 38.2808 81.3779 38.3841C81.5895 38.4856 81.7546 38.6321 81.873 38.8233C81.9915 39.0129 82.0508 39.2313 82.0508 39.4784C82.0508 39.8508 81.9213 40.153 81.6623 40.3849C81.4033 40.6151 81.0605 40.7302 80.634 40.7302H80.601ZM80.6568 40.2579C80.9615 40.2579 81.2061 40.1877 81.3906 40.0472C81.5751 39.905 81.6674 39.7154 81.6674 39.4784C81.6674 39.2397 81.5743 39.0502 81.3881 38.9097C81.2002 38.7692 80.9378 38.6989 80.601 38.6989C80.2997 38.6989 80.0559 38.7709 79.8697 38.9147C79.6818 39.0569 79.5879 39.2465 79.5879 39.4835C79.5879 39.7154 79.6801 39.9024 79.8646 40.0446C80.0492 40.1868 80.3132 40.2579 80.6568 40.2579ZM80.6568 34.0296C81.0749 34.0296 81.4118 34.1252 81.6674 34.3165C81.923 34.5078 82.0508 34.7668 82.0508 35.0935C82.0508 35.4269 81.945 35.6893 81.7334 35.8806H83.0562V36.3503H79.2527V35.9212L79.5574 35.8983C79.3204 35.7071 79.202 35.4413 79.202 35.1011C79.202 34.771 79.3264 34.5103 79.5752 34.319C79.824 34.1261 80.1702 34.0296 80.6137 34.0296H80.6568ZM80.6035 34.4993C80.2938 34.4993 80.0492 34.5653 79.8697 34.6974C79.6903 34.8294 79.6006 35.0105 79.6006 35.2407C79.6006 35.5251 79.7267 35.7384 79.9789 35.8806H81.2916C81.5421 35.7401 81.6674 35.5251 81.6674 35.2356C81.6674 35.0105 81.5785 34.8319 81.4008 34.6999C81.2214 34.5662 80.9556 34.4993 80.6035 34.4993ZM79.6742 32.1024C79.6624 32.1735 79.6564 32.2506 79.6564 32.3335C79.6564 32.6416 79.7876 32.8506 80.05 32.9606H82V33.4304H79.2527V32.9733L79.5701 32.9657C79.3247 32.8117 79.202 32.5933 79.202 32.3106C79.202 32.2192 79.2138 32.1498 79.2375 32.1024H79.6742ZM80.601 31.8435C80.3318 31.8435 80.0898 31.791 79.8748 31.686C79.6598 31.5794 79.4939 31.4321 79.3771 31.2442C79.2604 31.0547 79.202 30.8388 79.202 30.5968C79.202 30.2227 79.3314 29.9205 79.5904 29.6903C79.8494 29.4584 80.1939 29.3425 80.6238 29.3425H80.6568C80.9243 29.3425 81.1646 29.3941 81.3779 29.4974C81.5895 29.5989 81.7546 29.7453 81.873 29.9366C81.9915 30.1262 82.0508 30.3446 82.0508 30.5917C82.0508 30.9641 81.9213 31.2662 81.6623 31.4981C81.4033 31.7284 81.0605 31.8435 80.634 31.8435H80.601ZM80.6568 31.3712C80.9615 31.3712 81.2061 31.3009 81.3906 31.1605C81.5751 31.0183 81.6674 30.8287 81.6674 30.5917C81.6674 30.353 81.5743 30.1634 81.3881 30.023C81.2002 29.8825 80.9378 29.8122 80.601 29.8122C80.2997 29.8122 80.0559 29.8841 79.8697 30.028C79.6818 30.1702 79.5879 30.3598 79.5879 30.5968C79.5879 30.8287 79.6801 31.0157 79.8646 31.1579C80.0492 31.3001 80.3132 31.3712 80.6568 31.3712ZM79.2527 28.3116L79.5574 28.2989C79.3204 28.0975 79.202 27.8258 79.202 27.4839C79.202 27.0996 79.3492 26.8381 79.6438 26.6993C79.5117 26.6079 79.4051 26.4894 79.3238 26.3438C79.2426 26.1966 79.202 26.0231 79.202 25.8233C79.202 25.2207 79.521 24.9144 80.1592 24.9042H82V25.3739H80.1871C79.9908 25.3739 79.8443 25.4188 79.7479 25.5085C79.6497 25.5982 79.6006 25.7489 79.6006 25.9604C79.6006 26.1348 79.6531 26.2795 79.758 26.3946C79.8613 26.5097 80.0009 26.5766 80.177 26.5952H82V27.0675H80.1998C79.8003 27.0675 79.6006 27.263 79.6006 27.654C79.6006 27.9621 79.7318 28.1728 79.9941 28.2862H82V28.756H79.2527V28.3116ZM80.601 24.3177C80.3318 24.3177 80.0898 24.2652 79.8748 24.1603C79.6598 24.0536 79.4939 23.9063 79.3771 23.7185C79.2604 23.5289 79.202 23.3131 79.202 23.071C79.202 22.6969 79.3314 22.3948 79.5904 22.1646C79.8494 21.9327 80.1939 21.8167 80.6238 21.8167H80.6568C80.9243 21.8167 81.1646 21.8683 81.3779 21.9716C81.5895 22.0731 81.7546 22.2196 81.873 22.4108C81.9915 22.6004 82.0508 22.8188 82.0508 23.0659C82.0508 23.4383 81.9213 23.7405 81.6623 23.9724C81.4033 24.2026 81.0605 24.3177 80.634 24.3177H80.601ZM80.6568 23.8454C80.9615 23.8454 81.2061 23.7752 81.3906 23.6347C81.5751 23.4925 81.6674 23.3029 81.6674 23.0659C81.6674 22.8272 81.5743 22.6377 81.3881 22.4972C81.2002 22.3567 80.9378 22.2864 80.601 22.2864C80.2997 22.2864 80.0559 22.3584 79.8697 22.5022C79.6818 22.6444 79.5879 22.834 79.5879 23.071C79.5879 23.3029 79.6801 23.4899 79.8646 23.6321C80.0492 23.7743 80.3132 23.8454 80.6568 23.8454ZM78.5875 20.5903H79.2527V20.0774H79.6158V20.5903H81.3195C81.4296 20.5903 81.5125 20.5675 81.5684 20.5218C81.6225 20.4761 81.6496 20.3982 81.6496 20.2882C81.6496 20.234 81.6395 20.1595 81.6191 20.0647H82C82.0339 20.1883 82.0508 20.3085 82.0508 20.4253C82.0508 20.6352 81.9873 20.7935 81.8604 20.9001C81.7334 21.0067 81.5531 21.0601 81.3195 21.0601H79.6158V21.5603H79.2527V21.0601H78.5875V20.5903ZM82 19.0161V19.4858H79.2527V19.0161H82ZM78.524 19.5239C78.4479 19.5239 78.3835 19.5011 78.3311 19.4554C78.2786 19.408 78.2523 19.3386 78.2523 19.2472C78.2523 19.1558 78.2786 19.0864 78.3311 19.039C78.3835 18.9916 78.4479 18.9679 78.524 18.9679C78.6002 18.9679 78.6637 18.9916 78.7145 19.039C78.7652 19.0864 78.7906 19.1558 78.7906 19.2472C78.7906 19.3386 78.7652 19.408 78.7145 19.4554C78.6637 19.5011 78.6002 19.5239 78.524 19.5239ZM80.601 18.3864C80.3318 18.3864 80.0898 18.334 79.8748 18.229C79.6598 18.1224 79.4939 17.9751 79.3771 17.7872C79.2604 17.5976 79.202 17.3818 79.202 17.1397C79.202 16.7657 79.3314 16.4635 79.5904 16.2333C79.8494 16.0014 80.1939 15.8855 80.6238 15.8855H80.6568C80.9243 15.8855 81.1646 15.9371 81.3779 16.0403C81.5895 16.1419 81.7546 16.2883 81.873 16.4796C81.9915 16.6692 82.0508 16.8875 82.0508 17.1347C82.0508 17.5071 81.9213 17.8092 81.6623 18.0411C81.4033 18.2713 81.0605 18.3864 80.634 18.3864H80.601ZM80.6568 17.9142C80.9615 17.9142 81.2061 17.8439 81.3906 17.7034C81.5751 17.5612 81.6674 17.3716 81.6674 17.1347C81.6674 16.896 81.5743 16.7064 81.3881 16.5659C81.2002 16.4254 80.9378 16.3552 80.601 16.3552C80.2997 16.3552 80.0559 16.4271 79.8697 16.571C79.6818 16.7132 79.5879 16.9028 79.5879 17.1397C79.5879 17.3716 79.6801 17.5587 79.8646 17.7009C80.0492 17.8431 80.3132 17.9142 80.6568 17.9142ZM79.2527 14.8521L79.598 14.8368C79.334 14.6269 79.202 14.3527 79.202 14.0142C79.202 13.4336 79.5295 13.1407 80.1846 13.1356H82V13.6054H80.182C79.984 13.6071 79.8376 13.6528 79.7428 13.7425C79.648 13.8305 79.6006 13.9685 79.6006 14.1563C79.6006 14.3087 79.6412 14.4424 79.7225 14.5575C79.8037 14.6726 79.9104 14.7623 80.0424 14.8267H82V15.2964H79.2527V14.8521Z" fill="white" fill-opacity="0.5"/>
<path d="M123.353 43.4121L121.253 42.8839V42.4142L124 43.214V43.5949L121.918 44.2626L124 44.9126V45.2935L121.253 46.0908V45.6236L123.309 45.0828L121.253 44.4429V44.0646L123.353 43.4121ZM124.051 40.7943C124.051 41.1667 123.929 41.4697 123.685 41.7033C123.44 41.9369 123.112 42.0537 122.703 42.0537H122.616C122.344 42.0537 122.101 42.002 121.888 41.8988C121.673 41.7938 121.505 41.6483 121.385 41.4621C121.263 41.2742 121.202 41.071 121.202 40.8527C121.202 40.4955 121.32 40.2179 121.555 40.0199C121.79 39.8218 122.127 39.7228 122.565 39.7228H122.761V41.5839C123.032 41.5772 123.251 41.4985 123.419 41.3478C123.584 41.1955 123.667 41.0025 123.667 40.7689C123.667 40.603 123.634 40.4625 123.566 40.3474C123.498 40.2323 123.408 40.1316 123.297 40.0453L123.52 39.7583C123.874 39.9886 124.051 40.3339 124.051 40.7943ZM121.588 40.8527C121.588 41.0423 121.657 41.2014 121.796 41.33C121.933 41.4587 122.126 41.5382 122.375 41.5687V40.1925H122.339C122.101 40.2061 121.916 40.2704 121.786 40.3855C121.654 40.5006 121.588 40.6563 121.588 40.8527ZM122.657 36.8511C123.077 36.8511 123.414 36.9476 123.67 37.1406C123.924 37.3335 124.051 37.5925 124.051 37.9175C124.051 38.2645 123.928 38.5328 123.683 38.7224L124 38.7453V39.1769H120.1V38.7072H121.555C121.32 38.5176 121.202 38.2561 121.202 37.9226C121.202 37.5891 121.328 37.3276 121.58 37.138C121.832 36.9468 122.178 36.8511 122.616 36.8511H122.657ZM122.604 37.3209C122.284 37.3209 122.036 37.3826 121.862 37.5062C121.688 37.6298 121.601 37.8075 121.601 38.0394C121.601 38.3492 121.744 38.5718 122.032 38.7072H123.221C123.508 38.5633 123.652 38.339 123.652 38.0343C123.652 37.8092 123.565 37.634 123.391 37.5087C123.216 37.3835 122.954 37.3209 122.604 37.3209ZM123.271 33.3675C123.144 33.3675 123.046 33.4158 122.977 33.5123C122.906 33.607 122.845 33.7738 122.794 34.0125C122.743 34.2494 122.682 34.4382 122.611 34.5787C122.54 34.7175 122.455 34.8207 122.357 34.8884C122.259 34.9544 122.142 34.9875 122.007 34.9875C121.782 34.9875 121.591 34.8927 121.436 34.7031C121.28 34.5118 121.202 34.2681 121.202 33.9718C121.202 33.6604 121.282 33.4082 121.443 33.2152C121.604 33.0205 121.81 32.9232 122.06 32.9232V33.3955C121.932 33.3955 121.821 33.4505 121.728 33.5605C121.634 33.6688 121.588 33.8059 121.588 33.9718C121.588 34.1428 121.625 34.2765 121.7 34.373C121.774 34.4695 121.871 34.5177 121.992 34.5177C122.105 34.5177 122.19 34.4729 122.248 34.3832C122.306 34.2934 122.361 34.1318 122.413 33.8982C122.466 33.6629 122.528 33.4725 122.601 33.3269C122.674 33.1813 122.762 33.0738 122.865 33.0044C122.967 32.9334 123.091 32.8978 123.238 32.8978C123.484 32.8978 123.681 32.996 123.83 33.1923C123.977 33.3887 124.051 33.6434 124.051 33.9566C124.051 34.1766 124.012 34.3713 123.934 34.5406C123.856 34.7098 123.748 34.8427 123.609 34.9392C123.468 35.034 123.317 35.0814 123.154 35.0814V34.6117C123.312 34.6032 123.437 34.5406 123.53 34.4238C123.622 34.3053 123.667 34.1496 123.667 33.9566C123.667 33.7789 123.632 33.6367 123.561 33.53C123.488 33.4217 123.391 33.3675 123.271 33.3675ZM124 31.7755V32.2453H121.253V31.7755H124ZM120.524 32.2834C120.448 32.2834 120.384 32.2605 120.331 32.2148C120.279 32.1674 120.252 32.098 120.252 32.0066C120.252 31.9152 120.279 31.8458 120.331 31.7984C120.384 31.751 120.448 31.7273 120.524 31.7273C120.6 31.7273 120.664 31.751 120.714 31.7984C120.765 31.8458 120.791 31.9152 120.791 32.0066C120.791 32.098 120.765 32.1674 120.714 32.2148C120.664 32.2605 120.6 32.2834 120.524 32.2834ZM120.588 30.3841H121.253V29.8712H121.616V30.3841H123.32C123.43 30.3841 123.513 30.3613 123.568 30.3156C123.623 30.2699 123.65 30.192 123.65 30.082C123.65 30.0278 123.639 29.9533 123.619 29.8585H124C124.034 29.9821 124.051 30.1023 124.051 30.2191C124.051 30.429 123.987 30.5873 123.86 30.6939C123.733 30.8005 123.553 30.8539 123.32 30.8539H121.616V31.3541H121.253V30.8539H120.588V30.3841ZM124.051 28.1802C124.051 28.5526 123.929 28.8556 123.685 29.0892C123.44 29.3228 123.112 29.4396 122.703 29.4396H122.616C122.344 29.4396 122.101 29.388 121.888 29.2847C121.673 29.1798 121.505 29.0342 121.385 28.848C121.263 28.6601 121.202 28.457 121.202 28.2386C121.202 27.8815 121.32 27.6039 121.555 27.4058C121.79 27.2078 122.127 27.1087 122.565 27.1087H122.761V28.9699C123.032 28.9631 123.251 28.8844 123.419 28.7337C123.584 28.5814 123.667 28.3884 123.667 28.1548C123.667 27.9889 123.634 27.8485 123.566 27.7334C123.498 27.6182 123.408 27.5175 123.297 27.4312L123.52 27.1443C123.874 27.3745 124.051 27.7198 124.051 28.1802ZM121.588 28.2386C121.588 28.4282 121.657 28.5873 121.796 28.716C121.933 28.8446 122.126 28.9242 122.375 28.9546V27.5785H122.339C122.101 27.592 121.916 27.6563 121.786 27.7714C121.654 27.8865 121.588 28.0423 121.588 28.2386ZM123.271 24.9632C123.144 24.9632 123.046 25.0115 122.977 25.108C122.906 25.2028 122.845 25.3695 122.794 25.6082C122.743 25.8451 122.682 26.0339 122.611 26.1744C122.54 26.3132 122.455 26.4164 122.357 26.4841C122.259 26.5501 122.142 26.5832 122.007 26.5832C121.782 26.5832 121.591 26.4884 121.436 26.2988C121.28 26.1075 121.202 25.8638 121.202 25.5675C121.202 25.2561 121.282 25.0039 121.443 24.8109C121.604 24.6162 121.81 24.5189 122.06 24.5189V24.9912C121.932 24.9912 121.821 25.0462 121.728 25.1562C121.634 25.2645 121.588 25.4016 121.588 25.5675C121.588 25.7385 121.625 25.8722 121.7 25.9687C121.774 26.0652 121.871 26.1134 121.992 26.1134C122.105 26.1134 122.19 26.0686 122.248 25.9789C122.306 25.8891 122.361 25.7275 122.413 25.4939C122.466 25.2586 122.528 25.0682 122.601 24.9226C122.674 24.777 122.762 24.6695 122.865 24.6001C122.967 24.5291 123.091 24.4935 123.238 24.4935C123.484 24.4935 123.681 24.5917 123.83 24.788C123.977 24.9844 124.051 25.2391 124.051 25.5523C124.051 25.7723 124.012 25.967 123.934 26.1363C123.856 26.3056 123.748 26.4384 123.609 26.5349C123.468 26.6297 123.317 26.6771 123.154 26.6771V26.2074C123.312 26.1989 123.437 26.1363 123.53 26.0195C123.622 25.901 123.667 25.7453 123.667 25.5523C123.667 25.3746 123.632 25.2324 123.561 25.1257C123.488 25.0174 123.391 24.9632 123.271 24.9632Z" fill="white" fill-opacity="0.5"/>
<path d="M164.657 43.9239C165.075 43.9239 165.412 44.0196 165.667 44.2108C165.923 44.4021 166.051 44.6611 166.051 44.9878C166.051 45.3213 165.945 45.5836 165.733 45.7749H167.056V46.2446H163.253V45.8155L163.557 45.7927C163.32 45.6014 163.202 45.3356 163.202 44.9954C163.202 44.6653 163.326 44.4047 163.575 44.2134C163.824 44.0204 164.17 43.9239 164.614 43.9239H164.657ZM164.604 44.3937C164.294 44.3937 164.049 44.4597 163.87 44.5917C163.69 44.7237 163.601 44.9049 163.601 45.1351C163.601 45.4194 163.727 45.6327 163.979 45.7749H165.292C165.542 45.6344 165.667 45.4194 165.667 45.13C165.667 44.9049 165.579 44.7263 165.401 44.5942C165.221 44.4605 164.956 44.3937 164.604 44.3937ZM163.674 41.9968C163.662 42.0679 163.656 42.1449 163.656 42.2278C163.656 42.5359 163.788 42.745 164.05 42.855H166V43.3247H163.253V42.8677L163.57 42.8601C163.325 42.706 163.202 42.4877 163.202 42.205C163.202 42.1136 163.214 42.0442 163.238 41.9968H163.674ZM164.601 41.7378C164.332 41.7378 164.09 41.6853 163.875 41.5804C163.66 41.4737 163.494 41.3265 163.377 41.1386C163.26 40.949 163.202 40.7332 163.202 40.4911C163.202 40.117 163.331 39.8149 163.59 39.5847C163.849 39.3528 164.194 39.2368 164.624 39.2368H164.657C164.924 39.2368 165.165 39.2884 165.378 39.3917C165.59 39.4933 165.755 39.6397 165.873 39.831C165.992 40.0205 166.051 40.2389 166.051 40.486C166.051 40.8584 165.921 41.1606 165.662 41.3925C165.403 41.6227 165.061 41.7378 164.634 41.7378H164.601ZM164.657 41.2655C164.962 41.2655 165.206 41.1953 165.391 41.0548C165.575 40.9126 165.667 40.723 165.667 40.486C165.667 40.2474 165.574 40.0578 165.388 39.9173C165.2 39.7768 164.938 39.7065 164.601 39.7065C164.3 39.7065 164.056 39.7785 163.87 39.9224C163.682 40.0646 163.588 40.2541 163.588 40.4911C163.588 40.723 163.68 40.9101 163.865 41.0522C164.049 41.1944 164.313 41.2655 164.657 41.2655ZM164.604 38.7595C164.175 38.7595 163.835 38.6604 163.583 38.4624C163.329 38.2644 163.202 38.002 163.202 37.6753C163.202 37.3401 163.32 37.0786 163.557 36.8907L163.253 36.8679V36.4388H165.934C166.289 36.4388 166.57 36.5446 166.774 36.7562C166.979 36.966 167.082 37.2487 167.082 37.6042C167.082 37.8022 167.039 37.9961 166.955 38.1856C166.87 38.3752 166.754 38.52 166.607 38.6198L166.325 38.3761C166.574 38.1746 166.698 37.9284 166.698 37.6372C166.698 37.4087 166.634 37.231 166.505 37.104C166.377 36.9754 166.196 36.911 165.962 36.911H165.726C165.942 37.0989 166.051 37.3554 166.051 37.6804C166.051 38.002 165.921 38.2627 165.662 38.4624C165.403 38.6604 165.05 38.7595 164.604 38.7595ZM164.657 38.2872C164.967 38.2872 165.21 38.2237 165.388 38.0968C165.564 37.9698 165.652 37.7921 165.652 37.5636C165.652 37.2674 165.518 37.0498 165.248 36.911H163.994C163.732 37.0549 163.601 37.2707 163.601 37.5585C163.601 37.787 163.689 37.9656 163.867 38.0942C164.045 38.2229 164.308 38.2872 164.657 38.2872ZM163.674 34.3999C163.662 34.471 163.656 34.548 163.656 34.631C163.656 34.939 163.788 35.1481 164.05 35.2581H166V35.7278H163.253V35.2708L163.57 35.2632C163.325 35.1091 163.202 34.8908 163.202 34.6081C163.202 34.5167 163.214 34.4473 163.238 34.3999H163.674ZM166 32.3712C165.946 32.3983 165.849 32.4203 165.711 32.4372C165.937 32.6556 166.051 32.9162 166.051 33.2192C166.051 33.4901 165.975 33.7127 165.822 33.887C165.668 34.0597 165.474 34.146 165.238 34.146C164.952 34.146 164.73 34.0377 164.573 33.821C164.414 33.6026 164.334 33.2963 164.334 32.9019V32.4448H164.119C163.954 32.4448 163.824 32.4939 163.728 32.5921C163.629 32.6903 163.58 32.835 163.58 33.0263C163.58 33.1938 163.623 33.3343 163.707 33.4478C163.792 33.5612 163.894 33.6179 164.014 33.6179V34.0901C163.877 34.0901 163.745 34.0419 163.618 33.9454C163.49 33.8472 163.388 33.7152 163.314 33.5493C163.239 33.3817 163.202 33.1981 163.202 32.9983C163.202 32.6818 163.282 32.4338 163.441 32.2544C163.598 32.075 163.816 31.9819 164.093 31.9751H165.358C165.61 31.9751 165.81 31.9429 165.959 31.8786H166V32.3712ZM165.642 33.1507C165.642 33.0034 165.604 32.8638 165.528 32.7317C165.452 32.5997 165.353 32.5041 165.231 32.4448H164.667V32.813C164.667 33.3885 164.835 33.6763 165.172 33.6763C165.32 33.6763 165.435 33.6272 165.518 33.529C165.601 33.4308 165.642 33.3047 165.642 33.1507ZM163.253 30.797L163.557 30.7843C163.32 30.5828 163.202 30.3112 163.202 29.9692C163.202 29.585 163.349 29.3235 163.644 29.1847C163.512 29.0933 163.405 28.9748 163.324 28.8292C163.243 28.6819 163.202 28.5084 163.202 28.3087C163.202 27.7061 163.521 27.3997 164.159 27.3896H166V27.8593H164.187C163.991 27.8593 163.844 27.9041 163.748 27.9938C163.65 28.0836 163.601 28.2342 163.601 28.4458C163.601 28.6201 163.653 28.7649 163.758 28.88C163.861 28.9951 164.001 29.0619 164.177 29.0806H166V29.5528H164.2C163.8 29.5528 163.601 29.7483 163.601 30.1394C163.601 30.4474 163.732 30.6582 163.994 30.7716H166V31.2413H163.253V30.797ZM163.253 26.2368L163.557 26.2241C163.32 26.0227 163.202 25.751 163.202 25.4091C163.202 25.0248 163.349 24.7633 163.644 24.6245C163.512 24.5331 163.405 24.4146 163.324 24.269C163.243 24.1218 163.202 23.9483 163.202 23.7485C163.202 23.1459 163.521 22.8396 164.159 22.8294H166V23.2991H164.187C163.991 23.2991 163.844 23.344 163.748 23.4337C163.65 23.5234 163.601 23.6741 163.601 23.8856C163.601 24.06 163.653 24.2047 163.758 24.3198C163.861 24.4349 164.001 24.5018 164.177 24.5204H166V24.9927H164.2C163.8 24.9927 163.601 25.1882 163.601 25.5792C163.601 25.8873 163.732 26.098 163.994 26.2114H166V26.6812H163.253V26.2368ZM166 21.6081V22.0778H163.253V21.6081H166ZM162.524 22.1159C162.448 22.1159 162.384 22.0931 162.331 22.0474C162.279 22 162.252 21.9306 162.252 21.8392C162.252 21.7478 162.279 21.6784 162.331 21.631C162.384 21.5836 162.448 21.5599 162.524 21.5599C162.6 21.5599 162.664 21.5836 162.714 21.631C162.765 21.6784 162.791 21.7478 162.791 21.8392C162.791 21.9306 162.765 22 162.714 22.0474C162.664 22.0931 162.6 22.1159 162.524 22.1159ZM163.253 20.4097L163.598 20.3944C163.334 20.1845 163.202 19.9103 163.202 19.5718C163.202 18.9912 163.529 18.6983 164.185 18.6933H166V19.163H164.182C163.984 19.1647 163.838 19.2104 163.743 19.3001C163.648 19.3881 163.601 19.5261 163.601 19.714C163.601 19.8663 163.641 20 163.722 20.1151C163.804 20.2302 163.91 20.32 164.042 20.3843H166V20.854H163.253V20.4097ZM164.604 18.0966C164.175 18.0966 163.835 17.9976 163.583 17.7995C163.329 17.6015 163.202 17.3391 163.202 17.0124C163.202 16.6772 163.32 16.4157 163.557 16.2278L163.253 16.205V15.7759H165.934C166.289 15.7759 166.57 15.8817 166.774 16.0933C166.979 16.3032 167.082 16.5858 167.082 16.9413C167.082 17.1394 167.039 17.3332 166.955 17.5228C166.87 17.7123 166.754 17.8571 166.607 17.9569L166.325 17.7132C166.574 17.5118 166.698 17.2655 166.698 16.9743C166.698 16.7458 166.634 16.5681 166.505 16.4411C166.377 16.3125 166.196 16.2481 165.962 16.2481H165.726C165.942 16.436 166.051 16.6925 166.051 17.0175C166.051 17.3391 165.921 17.5998 165.662 17.7995C165.403 17.9976 165.05 18.0966 164.604 18.0966ZM164.657 17.6243C164.967 17.6243 165.21 17.5608 165.388 17.4339C165.564 17.3069 165.652 17.1292 165.652 16.9007C165.652 16.6045 165.518 16.3869 165.248 16.2481H163.994C163.732 16.392 163.601 16.6078 163.601 16.8956C163.601 17.1241 163.689 17.3027 163.867 17.4313C164.045 17.56 164.308 17.6243 164.657 17.6243Z" fill="white" fill-opacity="0.5"/>
<path d="M186.157 43.8188C186.577 43.8188 186.914 43.9152 187.17 44.1082C187.424 44.3012 187.551 44.5602 187.551 44.8852C187.551 45.2322 187.428 45.5005 187.183 45.69L187.5 45.7129V46.1445H183.6V45.6748H185.055C184.82 45.4852 184.702 45.2237 184.702 44.8902C184.702 44.5568 184.828 44.2952 185.08 44.1057C185.332 43.9144 185.678 43.8188 186.116 43.8188H186.157ZM186.104 44.2885C185.784 44.2885 185.536 44.3503 185.362 44.4738C185.188 44.5974 185.101 44.7751 185.101 45.007C185.101 45.3168 185.244 45.5394 185.532 45.6748H186.721C187.008 45.5309 187.152 45.3066 187.152 45.002C187.152 44.7768 187.065 44.6016 186.891 44.4764C186.716 44.3511 186.454 44.2885 186.104 44.2885ZM187.551 42.0846C187.551 42.457 187.429 42.76 187.185 42.9936C186.94 43.2271 186.612 43.3439 186.203 43.3439H186.116C185.844 43.3439 185.601 43.2923 185.388 43.1891C185.173 43.0841 185.005 42.9385 184.885 42.7523C184.763 42.5645 184.702 42.3613 184.702 42.143C184.702 41.7858 184.82 41.5082 185.055 41.3102C185.29 41.1121 185.627 41.0131 186.065 41.0131H186.261V42.8742C186.532 42.8674 186.751 42.7887 186.919 42.6381C187.084 42.4857 187.167 42.2928 187.167 42.0592C187.167 41.8933 187.134 41.7528 187.066 41.6377C186.998 41.5226 186.908 41.4219 186.797 41.3355L187.02 41.0486C187.374 41.2788 187.551 41.6242 187.551 42.0846ZM185.088 42.143C185.088 42.3326 185.157 42.4917 185.296 42.6203C185.433 42.749 185.626 42.8285 185.875 42.859V41.4828H185.839C185.601 41.4964 185.416 41.5607 185.286 41.6758C185.154 41.7909 185.088 41.9466 185.088 42.143ZM186.771 38.8676C186.644 38.8676 186.546 38.9158 186.477 39.0123C186.406 39.1071 186.345 39.2738 186.294 39.5125C186.243 39.7495 186.182 39.9382 186.111 40.0787C186.04 40.2175 185.955 40.3208 185.857 40.3885C185.759 40.4545 185.642 40.4875 185.507 40.4875C185.282 40.4875 185.091 40.3927 184.936 40.2031C184.78 40.0118 184.702 39.7681 184.702 39.4719C184.702 39.1604 184.782 38.9082 184.943 38.7152C185.104 38.5206 185.31 38.4232 185.56 38.4232V38.8955C185.432 38.8955 185.321 38.9505 185.228 39.0605C185.134 39.1689 185.088 39.306 185.088 39.4719C185.088 39.6428 185.125 39.7766 185.2 39.873C185.274 39.9695 185.371 40.0178 185.492 40.0178C185.605 40.0178 185.69 39.9729 185.748 39.8832C185.806 39.7935 185.861 39.6318 185.913 39.3982C185.966 39.163 186.028 38.9725 186.101 38.827C186.174 38.6814 186.262 38.5739 186.365 38.5045C186.467 38.4334 186.591 38.3979 186.738 38.3979C186.984 38.3979 187.181 38.496 187.33 38.6924C187.477 38.8887 187.551 39.1435 187.551 39.4566C187.551 39.6767 187.512 39.8714 187.434 40.0406C187.356 40.2099 187.248 40.3428 187.109 40.4393C186.968 40.534 186.817 40.5814 186.654 40.5814V40.1117C186.812 40.1033 186.937 40.0406 187.03 39.9238C187.122 39.8053 187.167 39.6496 187.167 39.4566C187.167 39.2789 187.132 39.1367 187.061 39.0301C186.988 38.9217 186.891 38.8676 186.771 38.8676ZM184.088 37.1486H184.753V36.6357H185.116V37.1486H186.82C186.93 37.1486 187.013 37.1258 187.068 37.0801C187.123 37.0344 187.15 36.9565 187.15 36.8465C187.15 36.7923 187.139 36.7178 187.119 36.623H187.5C187.534 36.7466 187.551 36.8668 187.551 36.9836C187.551 37.1935 187.487 37.3518 187.36 37.4584C187.233 37.565 187.053 37.6184 186.82 37.6184H185.116V38.1186H184.753V37.6184H184.088V37.1486ZM186.771 33.1953C186.644 33.1953 186.546 33.2436 186.477 33.34C186.406 33.4348 186.345 33.6016 186.294 33.8402C186.243 34.0772 186.182 34.266 186.111 34.4064C186.04 34.5452 185.955 34.6485 185.857 34.7162C185.759 34.7822 185.642 34.8152 185.507 34.8152C185.282 34.8152 185.091 34.7204 184.936 34.5309C184.78 34.3396 184.702 34.0958 184.702 33.7996C184.702 33.4882 184.782 33.2359 184.943 33.043C185.104 32.8483 185.31 32.751 185.56 32.751V33.2232C185.432 33.2232 185.321 33.2783 185.228 33.3883C185.134 33.4966 185.088 33.6337 185.088 33.7996C185.088 33.9706 185.125 34.1043 185.2 34.2008C185.274 34.2973 185.371 34.3455 185.492 34.3455C185.605 34.3455 185.69 34.3007 185.748 34.2109C185.806 34.1212 185.861 33.9596 185.913 33.726C185.966 33.4907 186.028 33.3003 186.101 33.1547C186.174 33.0091 186.262 32.9016 186.365 32.8322C186.467 32.7611 186.591 32.7256 186.738 32.7256C186.984 32.7256 187.181 32.8238 187.33 33.0201C187.477 33.2165 187.551 33.4712 187.551 33.7844C187.551 34.0044 187.512 34.1991 187.434 34.3684C187.356 34.5376 187.248 34.6705 187.109 34.767C186.968 34.8618 186.817 34.9092 186.654 34.9092V34.4395C186.812 34.431 186.937 34.3684 187.03 34.2516C187.122 34.1331 187.167 33.9773 187.167 33.7844C187.167 33.6066 187.132 33.4645 187.061 33.3578C186.988 33.2495 186.891 33.1953 186.771 33.1953ZM187.551 30.9736C187.551 31.346 187.429 31.649 187.185 31.8826C186.94 32.1162 186.612 32.233 186.203 32.233H186.116C185.844 32.233 185.601 32.1814 185.388 32.0781C185.173 31.9732 185.005 31.8276 184.885 31.6414C184.763 31.4535 184.702 31.2504 184.702 31.032C184.702 30.6749 184.82 30.3973 185.055 30.1992C185.29 30.0012 185.627 29.9021 186.065 29.9021H186.261V31.7633C186.532 31.7565 186.751 31.6778 186.919 31.5271C187.084 31.3748 187.167 31.1818 187.167 30.9482C187.167 30.7824 187.134 30.6419 187.066 30.5268C186.998 30.4117 186.908 30.3109 186.797 30.2246L187.02 29.9377C187.374 30.1679 187.551 30.5132 187.551 30.9736ZM185.088 31.032C185.088 31.2216 185.157 31.3807 185.296 31.5094C185.433 31.638 185.626 31.7176 185.875 31.748V30.3719H185.839C185.601 30.3854 185.416 30.4497 185.286 30.5648C185.154 30.6799 185.088 30.8357 185.088 31.032ZM185.174 28.0283C185.162 28.0994 185.156 28.1764 185.156 28.2594C185.156 28.5674 185.288 28.7765 185.55 28.8865H187.5V29.3563H184.753V28.8992L185.07 28.8916C184.825 28.7376 184.702 28.5192 184.702 28.2365C184.702 28.1451 184.714 28.0757 184.738 28.0283H185.174ZM186.863 26.642L184.753 25.9615V25.4816L187.5 26.4668V26.8248L184.753 27.8201V27.3402L186.863 26.642ZM187.5 24.5193V24.9891H184.753V24.5193H187.5ZM184.024 25.0271C183.948 25.0271 183.884 25.0043 183.831 24.9586C183.779 24.9112 183.752 24.8418 183.752 24.7504C183.752 24.659 183.779 24.5896 183.831 24.5422C183.884 24.4948 183.948 24.4711 184.024 24.4711C184.1 24.4711 184.164 24.4948 184.214 24.5422C184.265 24.5896 184.291 24.659 184.291 24.7504C184.291 24.8418 184.265 24.9112 184.214 24.9586C184.164 25.0043 184.1 25.0271 184.024 25.0271ZM187.167 22.6633C187.167 22.4957 187.117 22.3493 187.015 22.224C186.913 22.0988 186.787 22.0294 186.634 22.0158V21.5715C186.792 21.5799 186.941 21.6341 187.084 21.734C187.226 21.8339 187.339 21.9676 187.424 22.1352C187.508 22.301 187.551 22.4771 187.551 22.6633C187.551 23.0374 187.426 23.3353 187.178 23.557C186.927 23.7771 186.585 23.8871 186.152 23.8871H186.073C185.806 23.8871 185.568 23.838 185.36 23.7398C185.151 23.6417 184.99 23.5012 184.875 23.3184C184.76 23.1339 184.702 22.9163 184.702 22.6658C184.702 22.3577 184.794 22.1022 184.979 21.899C185.163 21.6942 185.403 21.585 185.697 21.5715V22.0158C185.52 22.0294 185.374 22.0971 185.261 22.2189C185.145 22.3391 185.088 22.4881 185.088 22.6658C185.088 22.9045 185.174 23.0898 185.347 23.2219C185.518 23.3522 185.766 23.4174 186.091 23.4174H186.18C186.496 23.4174 186.74 23.3522 186.911 23.2219C187.082 23.0915 187.167 22.9053 187.167 22.6633ZM187.551 19.9033C187.551 20.2757 187.429 20.5787 187.185 20.8123C186.94 21.0459 186.612 21.1627 186.203 21.1627H186.116C185.844 21.1627 185.601 21.1111 185.388 21.0078C185.173 20.9029 185.005 20.7573 184.885 20.5711C184.763 20.3832 184.702 20.1801 184.702 19.9617C184.702 19.6046 184.82 19.327 185.055 19.1289C185.29 18.9309 185.627 18.8318 186.065 18.8318H186.261V20.693C186.532 20.6862 186.751 20.6075 186.919 20.4568C187.084 20.3045 187.167 20.1115 187.167 19.8779C187.167 19.712 187.134 19.5715 187.066 19.4564C186.998 19.3413 186.908 19.2406 186.797 19.1543L187.02 18.8674C187.374 19.0976 187.551 19.4429 187.551 19.9033ZM185.088 19.9617C185.088 20.1513 185.157 20.3104 185.296 20.4391C185.433 20.5677 185.626 20.6473 185.875 20.6777V19.3016H185.839C185.601 19.3151 185.416 19.3794 185.286 19.4945C185.154 19.6096 185.088 19.7654 185.088 19.9617Z" fill="white" fill-opacity="0.5"/>
<path d="M233.771 44.5449C233.644 44.5449 233.546 44.5932 233.477 44.6896C233.406 44.7844 233.345 44.9512 233.294 45.1898C233.243 45.4268 233.182 45.6156 233.111 45.7561C233.04 45.8949 232.955 45.9981 232.857 46.0658C232.759 46.1318 232.642 46.1648 232.507 46.1648C232.282 46.1648 232.091 46.0701 231.936 45.8805C231.78 45.6892 231.702 45.4454 231.702 45.1492C231.702 44.8378 231.782 44.5855 231.943 44.3926C232.104 44.1979 232.31 44.1006 232.56 44.1006V44.5729C232.432 44.5729 232.321 44.6279 232.228 44.7379C232.134 44.8462 232.088 44.9833 232.088 45.1492C232.088 45.3202 232.125 45.4539 232.2 45.5504C232.274 45.6469 232.371 45.6951 232.492 45.6951C232.605 45.6951 232.69 45.6503 232.748 45.5605C232.806 45.4708 232.861 45.3092 232.913 45.0756C232.966 44.8403 233.028 44.6499 233.101 44.5043C233.174 44.3587 233.262 44.2512 233.365 44.1818C233.467 44.1107 233.591 44.0752 233.738 44.0752C233.984 44.0752 234.181 44.1734 234.33 44.3697C234.477 44.5661 234.551 44.8208 234.551 45.134C234.551 45.354 234.512 45.5487 234.434 45.718C234.356 45.8872 234.248 46.0201 234.109 46.1166C233.968 46.2114 233.817 46.2588 233.654 46.2588V45.7891C233.812 45.7806 233.937 45.718 234.03 45.6012C234.122 45.4827 234.167 45.327 234.167 45.134C234.167 44.9563 234.132 44.8141 234.061 44.7074C233.988 44.5991 233.891 44.5449 233.771 44.5449ZM234.5 42.9529V43.4227H231.753V42.9529H234.5ZM231.024 43.4607C230.948 43.4607 230.884 43.4379 230.831 43.3922C230.779 43.3448 230.752 43.2754 230.752 43.184C230.752 43.0926 230.779 43.0232 230.831 42.9758C230.884 42.9284 230.948 42.9047 231.024 42.9047C231.1 42.9047 231.164 42.9284 231.214 42.9758C231.265 43.0232 231.291 43.0926 231.291 43.184C231.291 43.2754 231.265 43.3448 231.214 43.3922C231.164 43.4379 231.1 43.4607 231.024 43.4607ZM231.753 41.7545L232.098 41.7393C231.834 41.5294 231.702 41.2551 231.702 40.9166C231.702 40.336 232.029 40.0432 232.685 40.0381H234.5V40.5078H232.682C232.484 40.5095 232.338 40.5552 232.243 40.6449C232.148 40.7329 232.101 40.8709 232.101 41.0588C232.101 41.2111 232.141 41.3449 232.222 41.46C232.304 41.5751 232.41 41.6648 232.542 41.7291H234.5V42.1988H231.753V41.7545ZM234.167 38.2277C234.167 38.0602 234.117 37.9137 234.015 37.7885C233.913 37.6632 233.787 37.5938 233.634 37.5803V37.1359C233.792 37.1444 233.941 37.1986 234.084 37.2984C234.226 37.3983 234.339 37.532 234.424 37.6996C234.508 37.8655 234.551 38.0415 234.551 38.2277C234.551 38.6018 234.426 38.8997 234.178 39.1215C233.927 39.3415 233.585 39.4516 233.152 39.4516H233.073C232.806 39.4516 232.568 39.4025 232.36 39.3043C232.151 39.2061 231.99 39.0656 231.875 38.8828C231.76 38.6983 231.702 38.4808 231.702 38.2303C231.702 37.9222 231.794 37.6666 231.979 37.4635C232.163 37.2587 232.403 37.1495 232.697 37.1359V37.5803C232.52 37.5938 232.374 37.6615 232.261 37.7834C232.145 37.9036 232.088 38.0525 232.088 38.2303C232.088 38.4689 232.174 38.6543 232.347 38.7863C232.518 38.9167 232.766 38.9818 233.091 38.9818H233.18C233.496 38.9818 233.74 38.9167 233.911 38.7863C234.082 38.656 234.167 38.4698 234.167 38.2277ZM234.551 35.4678C234.551 35.8402 234.429 36.1432 234.185 36.3768C233.94 36.6104 233.612 36.7271 233.203 36.7271H233.116C232.844 36.7271 232.601 36.6755 232.388 36.5723C232.173 36.4673 232.005 36.3217 231.885 36.1355C231.763 35.9477 231.702 35.7445 231.702 35.5262C231.702 35.169 231.82 34.8914 232.055 34.6934C232.29 34.4953 232.627 34.3963 233.065 34.3963H233.261V36.2574C233.532 36.2507 233.751 36.1719 233.919 36.0213C234.084 35.8689 234.167 35.676 234.167 35.4424C234.167 35.2765 234.134 35.136 234.066 35.0209C233.998 34.9058 233.908 34.8051 233.797 34.7188L234.02 34.4318C234.374 34.662 234.551 35.0074 234.551 35.4678ZM232.088 35.5262C232.088 35.7158 232.157 35.8749 232.296 36.0035C232.433 36.1322 232.626 36.2117 232.875 36.2422V34.866H232.839C232.601 34.8796 232.416 34.9439 232.286 35.059C232.154 35.1741 232.088 35.3298 232.088 35.5262ZM234.5 30.1865V32.6088H234.162L232.74 31.3291C232.525 31.1395 232.351 31.0092 232.217 30.9381C232.082 30.8653 231.942 30.8289 231.798 30.8289C231.605 30.8289 231.447 30.8873 231.324 31.0041C231.2 31.1209 231.138 31.2766 231.138 31.4713C231.138 31.7049 231.205 31.8868 231.339 32.0172C231.471 32.1458 231.655 32.2102 231.892 32.2102V32.6799C231.552 32.6799 231.277 32.5707 231.067 32.3523C230.857 32.1323 230.752 31.8386 230.752 31.4713C230.752 31.1277 230.843 30.856 231.024 30.6563C231.203 30.4565 231.443 30.3566 231.743 30.3566C232.107 30.3566 232.54 30.5885 233.043 31.0523L234.117 32.0426V30.1865H234.5ZM232.923 27.3707C233.473 27.3707 233.882 27.4646 234.15 27.6525C234.417 27.8404 234.551 28.1341 234.551 28.5336C234.551 28.928 234.42 29.22 234.16 29.4096C233.897 29.5992 233.506 29.6973 232.987 29.7041H232.36C231.816 29.7041 231.413 29.6102 231.148 29.4223C230.884 29.2344 230.752 28.9398 230.752 28.5387C230.752 28.1409 230.88 27.848 231.136 27.6602C231.39 27.4723 231.782 27.3758 232.314 27.3707H232.923ZM232.281 27.8404C231.883 27.8404 231.594 27.8963 231.413 28.008C231.23 28.1197 231.138 28.2966 231.138 28.5387C231.138 28.779 231.229 28.9542 231.41 29.0643C231.591 29.1743 231.87 29.231 232.245 29.2344H232.997C233.396 29.2344 233.692 29.1768 233.883 29.0617C234.073 28.9449 234.167 28.7689 234.167 28.5336C234.167 28.3017 234.078 28.1299 233.898 28.0182C233.719 27.9048 233.436 27.8455 233.05 27.8404H232.281ZM234.5 25.2252V25.6975H231.369L231.717 26.6445H231.291L230.785 25.2988V25.2252H234.5ZM230.801 22.0057H231.199V22.092C231.206 22.4576 231.314 22.7488 231.524 22.9654C231.734 23.1821 232.029 23.3074 232.41 23.3412C232.187 23.1465 232.075 22.8808 232.075 22.5439C232.075 22.2223 232.189 21.9659 232.415 21.7746C232.642 21.5816 232.935 21.4852 233.294 21.4852C233.675 21.4852 233.979 21.5893 234.208 21.7975C234.437 22.004 234.551 22.2816 234.551 22.6303C234.551 22.984 234.415 23.271 234.145 23.491C233.872 23.7111 233.522 23.8211 233.093 23.8211H232.913C232.233 23.8211 231.713 23.6764 231.354 23.3869C230.994 23.0958 230.809 22.6633 230.801 22.0895V22.0057ZM232.466 22.6227C232.466 22.7835 232.514 22.9316 232.611 23.067C232.707 23.2024 232.828 23.2964 232.974 23.3488H233.147C233.451 23.3488 233.697 23.2803 233.883 23.1432C234.069 23.0061 234.162 22.8351 234.162 22.6303C234.162 22.4187 234.084 22.2528 233.929 22.1326C233.773 22.0107 233.569 21.9498 233.317 21.9498C233.063 21.9498 232.858 22.0116 232.702 22.1352C232.545 22.257 232.466 22.4195 232.466 22.6227Z" fill="white" fill-opacity="0.5"/>
</svg>
