<svg width="34" height="46" viewBox="0 0 34 46" fill="none" xmlns="http://www.w3.org/2000/svg">
<path d="M32.1 9.11V5.13C33.22 4.47 33.99 3.27 33.99 1.88V0.940002C33.99 0.420002 33.57 0 33.05 0H0.940002C0.420002 0 0 0.420002 0 0.940002V1.88C0 3.27 0.769999 4.48 1.89 5.13V9.11C1.89 12.85 3.49 16.43 6.27 18.94L10.4 22.66L6.27 26.38C3.49 28.88 1.89 32.47 1.89 36.21V40.19C0.769999 40.85 0 42.05 0 43.44V44.38C0 44.9 0.420002 45.32 0.940002 45.32H33.05C33.57 45.32 33.99 44.9 33.99 44.38V43.44C33.99 42.05 33.22 40.84 32.1 40.19V36.21C32.1 32.47 30.5 28.89 27.72 26.38L23.59 22.66L27.72 18.94C30.51 16.44 32.1 12.85 32.1 9.11ZM25.2 16.13L19.51 21.25C19.11 21.61 18.88 22.12 18.88 22.65C18.88 23.19 19.11 23.7 19.51 24.05L25.2 29.17C27.19 30.96 28.33 33.52 28.33 36.19V39.66H25.97L17.75 28.7C17.39 28.22 16.6 28.22 16.24 28.7L8.02 39.66H5.66V36.21C5.66 33.54 6.80001 30.98 8.79001 29.19L14.48 24.07C14.88 23.71 15.11 23.2 15.11 22.67C15.11 22.13 14.88 21.62 14.48 21.27L8.79001 16.15C6.80001 14.36 5.66 11.8 5.66 9.13V5.66H28.33V9.11C28.32 11.79 27.18 14.34 25.2 16.13Z" fill="#343434"/>
<path d="M23.5 13.22H10.48C10.11 13.22 9.77001 13.44 9.62001 13.78C9.47001 14.12 9.53 14.52 9.78 14.8L16.36 20.87C16.54 21.03 16.77 21.11 16.99 21.11C17.22 21.11 17.44 21.03 17.62 20.87L24.2 14.8C24.45 14.52 24.52 14.12 24.36 13.78C24.21 13.44 23.87 13.22 23.5 13.22Z" fill="#343434"/>
</svg>
