<svg width="259" height="66" viewBox="0 0 259 66" fill="none" xmlns="http://www.w3.org/2000/svg">
<path d="M14.16 12.75C21.21 12.75 24.97 18.62 24.97 18.62L24.27 19.09C24.27 19.09 20.75 13.69 14.17 13.69C8.30002 13.69 4.54002 17.45 4.54002 21.21C4.54002 30.14 25.69 27.79 25.69 38.13C25.69 43.06 21.23 47.53 13.94 47.53C4.78003 47.53 1.02002 40.25 1.02002 40.25L1.73003 39.78C1.73003 39.78 5.25002 46.59 13.95 46.59C20.29 46.59 24.29 42.6 24.29 38.13C24.29 29.2 3.14002 31.55 3.14002 21.21C3.12002 16.98 7.35003 12.75 14.16 12.75Z" fill="#010202" stroke="black" stroke-miterlimit="10"/>
<path d="M45.6502 45.6499H66.3302V46.5899H44.2402V13.6899H65.3902L65.1602 14.6299H45.6602V29.1999H60.2302L59.9902 30.1399H45.6602V45.6499H45.6502Z" fill="#010202" stroke="black" stroke-miterlimit="10"/>
<path d="M85.3602 33.4299V46.5899H83.9502V13.6899H95.2302C102.28 13.6899 106.51 17.9199 106.51 23.5599C106.51 31.5499 98.9902 32.9599 98.9902 32.9599V33.1899L108.39 46.5799H106.74L97.5802 33.4199H85.3602V33.4299ZM105.1 23.5599C105.1 18.3899 101.34 14.6299 95.2302 14.6299H85.3602V32.4899H95.2302C101.34 32.4899 105.1 28.7299 105.1 23.5599Z" fill="#010202" stroke="black" stroke-miterlimit="10"/>
<path d="M149.52 13.6899H150.69L137.06 46.5899H136.12L126.19 22.8299H127.83L136.73 44.2399H136.92L149.52 13.6899Z" fill="#010202" stroke="black" stroke-miterlimit="10"/>
<path d="M169.73 46.5899H168.32V13.6899H169.73V46.5899Z" fill="#010202" stroke="black" stroke-miterlimit="10"/>
<path d="M218.61 40.25C218.61 40.25 214.85 47.53 205.22 47.53C196.06 47.53 189.01 40.48 189.01 30.14C189.01 19.8 196.06 12.75 205.22 12.75C213.91 12.75 217.91 19.56 217.91 19.56L217.2 20.03C217.2 20.03 213.44 13.69 205.22 13.69C197 13.69 190.42 20.27 190.42 30.14C190.42 40.01 197 46.59 205.22 46.59C214.39 46.59 217.91 39.78 217.91 39.78L218.61 40.25Z" fill="#010202" stroke="black" stroke-miterlimit="10"/>
<path d="M237.64 45.6499H258.32V46.5899H236.23V13.6899H257.38L257.14 14.6299H237.64V29.1999H252.21L251.97 30.1399H237.64V45.6499Z" fill="#010202" stroke="black" stroke-miterlimit="10"/>
<path d="M122.75 6.84995C121.81 8.32995 121 9.59994 120.32 10.6399C119.64 11.6899 119.09 12.5899 118.65 13.3299C118.22 14.0699 117.9 14.6799 117.69 15.1399C117.48 15.6099 117.38 15.9899 117.38 16.2999C117.38 16.5399 117.42 16.7399 117.52 16.8799C117.61 17.0299 117.74 17.1099 117.92 17.1099C118.32 17.1099 118.88 16.8799 119.61 16.4199C120.34 15.9599 121.26 15.1699 122.36 14.0499C122.8 13.5899 123.23 13.1299 123.65 12.6799C124.07 12.2299 124.46 11.7999 124.84 11.3799C125.21 10.9599 125.54 10.5799 125.83 10.2399C126.12 9.89994 126.35 9.62993 126.53 9.42993L126.8 9.60994C126.56 9.92994 126.26 10.2999 125.92 10.6999C125.57 11.1099 125.19 11.5399 124.8 11.9899C124.4 12.4399 123.99 12.8899 123.57 13.3199C123.15 13.7599 122.74 14.1799 122.34 14.5799C121.18 15.7399 120.18 16.5499 119.35 17.0099C118.52 17.4699 117.76 17.6999 117.06 17.6999C116.4 17.6999 115.89 17.5199 115.53 17.1599C115.17 16.7999 114.99 16.3299 114.99 15.7499C114.99 15.3499 115.07 14.9399 115.22 14.4999C115.37 14.0699 115.62 13.5399 115.98 12.8999C116.34 12.2599 116.82 11.4599 117.42 10.5199C118.02 9.56994 118.77 8.39994 119.67 6.98994L122.75 6.84995ZM124.49 0.189941C124.87 0.189941 125.2 0.32994 125.5 0.60994C125.79 0.88994 125.94 1.21995 125.94 1.59995C125.94 1.99995 125.78 2.36994 125.46 2.69994C125.14 3.02994 124.78 3.18994 124.38 3.18994C123.94 3.18994 123.56 3.07995 123.24 2.84995C122.92 2.61995 122.76 2.27994 122.76 1.80994C122.76 1.34994 122.93 0.969943 123.28 0.659943C123.63 0.339943 124.03 0.189941 124.49 0.189941Z" fill="#AB8B11"/>
<path d="M138.98 9.66988C138.24 10.5699 137.44 11.5099 136.58 12.4799C135.72 13.4499 134.79 14.3399 133.81 15.1399C132.82 15.9399 131.76 16.5999 130.63 17.1199C129.5 17.6399 128.3 17.8999 127.05 17.8999C125.85 17.8999 124.93 17.5699 124.29 16.9199C123.65 16.2699 123.33 15.3199 123.33 14.0599C123.33 13.0999 123.61 12.1599 124.17 11.2399C124.73 10.3199 125.45 9.49988 126.33 8.77988C127.21 8.05988 128.18 7.47987 129.24 7.03987C130.3 6.59987 131.33 6.37988 132.33 6.37988C133.25 6.37988 133.98 6.56988 134.52 6.93988C135.06 7.30988 135.33 7.75988 135.33 8.29988C135.33 8.67988 135.26 9.02987 135.11 9.33987C134.96 9.64987 134.76 9.90987 134.52 10.1199C134.28 10.3299 134.01 10.4899 133.71 10.5999C133.41 10.7099 133.11 10.7699 132.81 10.7699C132.55 10.7699 132.32 10.7499 132.12 10.7099C132.26 10.2499 132.41 9.77988 132.57 9.29988C132.73 8.81988 132.81 8.33988 132.81 7.85988C132.81 7.51988 132.73 7.24988 132.57 7.04988C132.41 6.84988 132.19 6.74988 131.91 6.74988C131.39 6.74988 130.8 6.95987 130.14 7.36987C129.48 7.77987 128.86 8.32988 128.28 9.01988C127.7 9.70988 127.21 10.4999 126.81 11.3899C126.41 12.2799 126.21 13.1999 126.21 14.1599C126.21 14.9199 126.44 15.5699 126.9 16.0999C127.36 16.6299 128 16.8899 128.82 16.8899C129.8 16.8899 130.77 16.6199 131.74 16.0799C132.71 15.5399 133.63 14.8899 134.5 14.1199C135.37 13.3499 136.17 12.5499 136.88 11.7199C137.6 10.8899 138.21 10.1799 138.71 9.56989L138.98 9.66988Z" fill="#AB8B11"/>
<path d="M136.91 7.38995L137.12 6.84996H139.43L141.68 3.06996L144.92 2.94995L142.43 6.84996H146.24L145.97 7.38995H142.1C141.2 8.86995 140.44 10.1199 139.82 11.1199C139.2 12.1299 138.7 12.97 138.33 13.64C137.96 14.31 137.69 14.85 137.52 15.24C137.35 15.64 137.27 15.9899 137.27 16.2899C137.27 16.5499 137.34 16.76 137.48 16.92C137.62 17.08 137.82 17.16 138.08 17.16C138.58 17.16 139.24 16.9099 140.06 16.3999C140.88 15.8899 141.76 15.18 142.7 14.28C143.34 13.64 144.04 12.89 144.8 12.03C145.56 11.17 146.27 10.3 146.93 9.41995L147.11 9.56996C146.65 10.17 146.07 10.8999 145.37 11.7599C144.67 12.6199 143.9 13.47 143.06 14.31C142.6 14.77 142.12 15.21 141.63 15.61C141.14 16.02 140.64 16.38 140.15 16.69C139.65 17 139.16 17.25 138.68 17.42C138.2 17.6 137.73 17.69 137.27 17.69C136.63 17.69 136.07 17.5399 135.59 17.2599C135.11 16.9699 134.87 16.46 134.87 15.74C134.87 15.22 134.98 14.69 135.2 14.14C135.42 13.59 135.73 12.98 136.12 12.33C136.51 11.67 136.96 10.94 137.49 10.14C138.01 9.33995 138.57 8.41996 139.17 7.37996H136.91V7.38995Z" fill="#AB8B11"/>
<path opacity="0.4" d="M203.47 63.55H109.14V65.5H203.47V63.55Z" fill="#AB8B11"/>
<path opacity="0.4" d="M109.13 63.55H55.8501V65.5H109.13V63.55Z" fill="#010202"/>
</svg>
