<svg width="46" height="53" viewBox="0 0 46 53" fill="none" xmlns="http://www.w3.org/2000/svg">
<path d="M45.97 39.69L44.3 30.84C44.23 30.47 43.99 30.16 43.64 30.01C43.3 29.86 42.91 29.88 42.59 30.07L34.87 34.72C34.42 34.99 34.21 35.54 34.37 36.04C34.53 36.54 35.01 36.87 35.54 36.83L38.55 36.62C35.67 40.49 31.34 42.07 26.37 42.48V17.15H28.85C29.25 17.45 29.74 17.63 30.28 17.63C31.61 17.63 32.69 16.55 32.69 15.22C32.69 13.89 31.61 12.81 30.28 12.81C29.74 12.81 29.25 12.99 28.85 13.29H26.37V9.80997C27.78 8.86997 28.72 7.26997 28.72 5.44997C28.72 2.55997 26.37 0.219971 23.49 0.219971C20.6 0.219971 18.26 2.56997 18.26 5.44997C18.26 7.26997 19.19 8.86997 20.61 9.80997V13.29H18.13C17.73 12.99 17.24 12.81 16.7 12.81C15.37 12.81 14.29 13.89 14.29 15.22C14.29 16.55 15.37 17.63 16.7 17.63C17.24 17.63 17.73 17.45 18.13 17.15H20.61V42.48C15.64 42.07 11.31 40.49 8.43 36.62L11.44 36.83C11.97 36.87 12.45 36.54 12.61 36.04C12.77 35.54 12.56 34.99 12.11 34.72L4.39001 30.07C4.07001 29.88 3.68 29.85 3.34 30.01C3 30.16 2.75 30.47 2.68 30.84L1.01 39.69C0.910002 40.21 1.18001 40.73 1.66001 40.94C2.14001 41.16 2.71001 41.02 3.03001 40.6L4.83001 38.28C8.35001 43.98 13.88 48.75 20.26 49.99L22.68 52.41C23.13 52.86 23.85 52.86 24.29 52.41L26.71 49.99C33.09 48.75 38.63 43.98 42.15 38.28L43.95 40.6C44.27 41.02 44.84 41.16 45.32 40.94C45.8 40.73 46.07 40.21 45.97 39.69ZM23.49 4.09998C24.25 4.09998 24.87 4.71997 24.87 5.47997C24.87 6.23997 24.25 6.85997 23.49 6.85997C22.73 6.85997 22.11 6.23997 22.11 5.47997C22.11 4.71997 22.73 4.09998 23.49 4.09998Z" fill="#343434"/>
</svg>
